<?xml version="1.0" encoding="utf-8"?>
<!-- Generator: Adobe Illustrator 17.1.0, SVG Export Plug-In . SVG Version: 6.00 Build 0)  -->
<!DOCTYPE svg PUBLIC "-//W3C//DTD SVG 1.1//EN" "http://www.w3.org/Graphics/SVG/1.1/DTD/svg11.dtd">
<svg version="1.1" id="Layer_1" xmlns="http://www.w3.org/2000/svg" xmlns:xlink="http://www.w3.org/1999/xlink" x="0px" y="0px"
	 viewBox="0 0 142 27" enable-background="new 0 0 142 27" xml:space="preserve">
<path d="M3.3,26.4V15.8c0-2.6,1.6-4.5,3.9-4.5c2.5,0,3.6,1.8,3.6,4v11H14V15.8c0-2.5,1.6-4.4,3.9-4.4c2.5,0,3.6,1.7,3.6,4v11h3.3V15
	c0-4.6-2.9-6.7-5.8-6.7c-2.1,0-4.3,0.8-5.6,3.3c-0.9-2.3-2.9-3.3-5-3.3c-2,0-4.1,0.9-5.1,2.8V8.9H0v17.6H3.3z M38.5,23.9
	c-2.8,0-5.2-2.2-5.2-6.3c0-4.1,2.4-6.2,5.2-6.2c2.8,0,5.2,2.2,5.2,6.2C43.8,21.7,41.3,23.9,38.5,23.9L38.5,23.9z M38.5,8.3
	c-5,0-8.6,4-8.6,9.3c0,5.4,3.6,9.3,8.6,9.3c5,0,8.6-4,8.6-9.3C47.1,12.3,43.6,8.3,38.5,8.3L38.5,8.3z M54.6,17.6c0-3.6,2-6.2,5-6.2
	c3,0,4.8,2.5,4.8,6.1c0,3.6-1.9,6.4-4.9,6.4C56.4,23.9,54.6,21.2,54.6,17.6L54.6,17.6z M64.5,24.1c0,1.1,0.1,2,0.2,2.4h3.2
	c0-0.3-0.2-1.6-0.2-3.3V0h-3.3v11.4c-0.6-1.4-2.2-3-5.1-3c-4.8,0-8,4.2-8,9.2c0,5.2,3,9.3,8,9.3c2.6,0,4.4-1.5,5.2-3.1V24.1z
	 M85.5,24.3c0,0.7,0.1,1.7,0.1,2.1h3.1c-0.1-0.6-0.2-1.9-0.2-3.3V8.9h-3.3v10.6c0,2.7-1.3,4.5-4,4.5c-2.8,0-3.8-2.1-3.8-4.5V8.9
	h-3.3v11.1c0,4,2.4,7,6.3,7C82.5,27,84.6,26.1,85.5,24.3L85.5,24.3z M98.9,26.4V0h-3.3v26.4H98.9z M107.9,15.8
	c0.1-2.3,1.8-4.5,4.6-4.5c3,0,4.5,2,4.6,4.5H107.9z M117.6,20.4c-0.6,2-2,3.5-4.7,3.5c-2.8,0-5-2.2-5.1-5.3h12.7
	c0-0.2,0.1-0.7,0.1-1.1c0-5.5-2.9-9.2-8.1-9.2c-4.2,0-8,3.8-8,9.3c0,6,4,9.4,8.5,9.4c3.9,0,6.6-2.4,7.6-5.6L117.6,20.4z M130.9,5
	c0-1.2,0.2-2.1,0.6-2.7c0.3-0.4,0.7-0.7,1.4-0.7c0.7,0,1.1,0.3,1.4,0.7c0.4,0.6,0.6,1.5,0.6,2.7c0,1.2-0.2,2.1-0.6,2.7
	c-0.3,0.4-0.7,0.7-1.4,0.7c-0.7,0-1.1-0.3-1.4-0.7C131.1,7.1,130.9,6.2,130.9,5z M129.2,5c0,1.3,0.2,2.5,0.8,3.4
	c0.6,0.9,1.6,1.6,2.9,1.6c1.4,0,2.3-0.6,2.9-1.6c0.6-1,0.8-2.2,0.8-3.4c0-1.3-0.2-2.5-0.8-3.4c-0.6-0.9-1.5-1.6-2.9-1.6
	c-1.4,0-2.3,0.6-2.9,1.6C129.4,2.5,129.2,3.7,129.2,5L129.2,5z M142,9.8V0.2h-1.5c-0.2,1-1.1,1.8-2.4,1.8v1.2h2.2v6.5H142z"/>
</svg>
