<?xml version="1.0" encoding="utf-8"?>
<!-- Generator: Adobe Illustrator 17.1.0, SVG Export Plug-In . SVG Version: 6.00 Build 0)  -->
<!DOCTYPE svg PUBLIC "-//W3C//DTD SVG 1.1//EN" "http://www.w3.org/Graphics/SVG/1.1/DTD/svg11.dtd">
<svg version="1.1" id="Layer_1" xmlns="http://www.w3.org/2000/svg" xmlns:xlink="http://www.w3.org/1999/xlink" x="0px" y="0px"
	 viewBox="0 0 102 19" enable-background="new 0 0 102 19" xml:space="preserve">
<g>
	<path fill="#FFFFFF" d="M2.3,18.6v-7.5C2.3,9.3,3.4,8,5.1,8c1.8,0,2.5,1.2,2.5,2.8v7.8H10v-7.5C10,9.4,11.1,8,12.8,8
		c1.8,0,2.5,1.2,2.5,2.8v7.8h2.3v-8c0-3.2-2-4.7-4.1-4.7c-1.5,0-3.1,0.6-4,2.3C8.8,6.6,7.4,5.9,5.9,5.9c-1.4,0-2.9,0.6-3.6,2V6.2H0
		v12.4H2.3z M27.4,16.8c-2,0-3.7-1.5-3.7-4.4c0-2.9,1.7-4.4,3.7-4.4c2,0,3.7,1.5,3.7,4.4C31.2,15.3,29.4,16.8,27.4,16.8L27.4,16.8z
		 M27.4,5.9c-3.6,0-6.1,2.8-6.1,6.6c0,3.8,2.5,6.6,6.1,6.6c3.6,0,6.1-2.8,6.1-6.6C33.6,8.7,31,5.9,27.4,5.9L27.4,5.9z M38.9,12.4
		c0-2.5,1.4-4.3,3.5-4.3c2.1,0,3.4,1.7,3.4,4.3c0,2.5-1.3,4.4-3.5,4.5C40.2,16.9,39,15.3,38.9,12.4L38.9,12.4z M45.9,16.9
		c0,0.7,0.1,1.4,0.1,1.7h2.3c0-0.2-0.1-1.1-0.1-2.3V0h-2.3v8c-0.4-1-1.5-2.1-3.7-2.1c-3.4,0-5.7,3-5.7,6.5c0,3.7,2.2,6.6,5.7,6.6
		c1.9,0,3.1-1,3.7-2.2V16.9z M60.9,17.1c0,0.5,0,1.2,0.1,1.5h2.2c0-0.4-0.1-1.3-0.1-2.3V6.2h-2.3v7.5c0,1.9-0.9,3.2-2.8,3.2
		c-2,0-2.7-1.5-2.7-3.2V6.2h-2.3V14c0,2.8,1.7,5,4.5,5C58.8,19,60.3,18.4,60.9,17.1L60.9,17.1z M70.4,18.6V0h-2.3v18.6H70.4z
		 M76.9,11.2C77,9.6,78.2,8,80.2,8c2.1,0,3.2,1.4,3.3,3.2H76.9z M83.8,14.4c-0.4,1.4-1.4,2.5-3.4,2.5c-2,0-3.6-1.5-3.6-3.8h9
		c0-0.2,0-0.5,0-0.8c0-3.9-2.1-6.5-5.8-6.5c-3,0-5.7,2.6-5.7,6.5c0,4.2,2.8,6.6,6,6.6c2.8,0,4.7-1.7,5.4-3.9L83.8,14.4z M98.5,2.7
		c0-0.1,0-0.2,0-0.3c0-0.7,0.4-1.3,1.2-1.3c0.7,0,1.1,0.5,1.1,1.1c0,0.5-0.3,0.9-0.8,1.3l-1.1,0.7c-1.2,0.7-1.5,1.6-1.6,2.8h4.8V5.8
		h-3.3c0.1-0.3,0.4-0.6,0.7-0.8l1.3-0.8c0.8-0.5,1.3-1.2,1.3-2.1C102,1,101.1,0,99.6,0c-1.5,0-2.4,1.1-2.4,2.2c0,0.1,0,0.3,0,0.4
		L98.5,2.7z M92.3,3.5c0-0.9,0.1-1.5,0.5-1.9c0.2-0.3,0.5-0.5,1-0.5c0.5,0,0.8,0.2,1,0.5c0.3,0.4,0.5,1.1,0.5,1.9
		c0,0.9-0.1,1.5-0.5,1.9c-0.2,0.3-0.5,0.5-1,0.5c-0.5,0-0.8-0.2-1-0.5C92.4,5.1,92.3,4.4,92.3,3.5L92.3,3.5z M91,3.5
		c0,0.9,0.1,1.7,0.6,2.4c0.4,0.7,1.1,1.1,2.1,1.1s1.7-0.4,2.1-1.1c0.4-0.7,0.6-1.5,0.6-2.4c0-0.9-0.1-1.7-0.6-2.4
		C95.4,0.4,94.7,0,93.7,0s-1.7,0.4-2.1,1.1C91.2,1.8,91,2.6,91,3.5L91,3.5z"/>
</g>
</svg>
